<?xml version="1.0" encoding="utf-8"?>
<!-- Generator: Adobe Illustrator 21.1.0, SVG Export Plug-In . SVG Version: 6.00 Build 0)  -->
<svg version="1.1" xmlns="http://www.w3.org/2000/svg" xmlns:xlink="http://www.w3.org/1999/xlink" x="0px" y="0px"
	 viewBox="0 0 450 450" style="enable-background:new 0 0 450 450;" xml:space="preserve">
<style type="text/css">
	.st0{fill:#6C99B8;}
	.st1{fill:#FFFBCC;}
</style>
<g id="Background">
</g>
<g id="Object">
	<g>
		<path class="st0" d="M387.7,87.1c-0.9-8.8-4.5-15.6-10.6-20.4c-25.3-20-64.5,4.3-66.2,5.3c-2.1,1.3-2.7,4.1-1.4,6.2
			c1.3,2.1,4.1,2.7,6.2,1.4c0.4-0.2,35.4-22,55.8-5.9c4.2,3.3,6.5,8,7.2,14.3c1.5,13.9-5.6,34.5-19.4,58.2
			c-8.8-15.8-20.2-29.9-33.6-41.7c-0.2-0.2-0.5-0.5-0.7-0.7c-27.4-23.8-63.1-38.2-102.1-38.2C137,65.7,67,135.6,67,221.6
			c0,23.6,5.3,45.9,14.6,65.9c-14.6,22-25.9,43.9-28.3,61c-3.3,23.9,5.8,34.9,14,39.9c6,3.6,13.4,5.2,21.4,5.2
			c16.9,0,36.4-7,50.5-17c2-1.4,2.5-4.2,1.1-6.3c-1.4-2-4.2-2.5-6.3-1.1C116.1,382,87.2,390,72.1,380.7c-8.6-5.2-11.9-15.6-9.8-31
			c2-14.7,11.5-33.5,24.1-53c26.6,48.1,77.8,80.7,136.5,80.7c86,0,155.9-69.9,155.9-155.9c0-23.5-5.2-45.8-14.6-65.9
			C381,128.2,389.5,104,387.7,87.1z M222.9,368.5c-57,0-106.6-32.7-130.9-80.2c23.8-34.8,55.3-70,69.6-85.5v32.6
			c0,2.5,2,4.5,4.5,4.5c2.5,0,4.5-2,4.5-4.5v-43.9c0,0,0,0,0,0c0-0.2,0-0.4-0.1-0.7c0-0.1,0-0.1,0-0.2c0-0.2-0.1-0.5-0.2-0.7
			c0,0,0-0.1,0-0.2c0-0.1-0.1-0.2-0.1-0.3c-0.1-0.2-0.2-0.3-0.3-0.5c0-0.1-0.1-0.1-0.2-0.2c-0.1-0.2-0.3-0.3-0.4-0.5c0,0,0,0,0,0
			c-0.1-0.1-0.2-0.1-0.2-0.2c-0.1-0.1-0.3-0.2-0.4-0.3c-0.1-0.1-0.2-0.1-0.4-0.2c-0.1-0.1-0.3-0.1-0.4-0.2c-0.1-0.1-0.3-0.1-0.4-0.1
			c-0.1,0-0.3-0.1-0.4-0.1c-0.2,0-0.4,0-0.6-0.1c-0.1,0-0.2,0-0.3,0h-46.3c-2.5,0-4.5,2-4.5,4.5c0,2.5,2,4.5,4.5,4.5h35.8
			c-13.7,14.7-43.9,48.2-68.1,82.8C80.2,261.2,76,241.9,76,221.6c0-81,65.9-146.9,146.9-146.9c36.3,0,69.5,13.2,95.1,35.1
			c0.4,8-0.2,24.9-7.6,30.9c-5,4.1-16.5,3.6-26.6,3.2c-10-0.4-19.5-0.8-25.4,2.7c-2.2,1.3-4.1,2.5-5.8,3.6
			c-6.2,4-10.3,6.6-24.7,10.6c-21.7,6-28.5,29.7-28.5,35.9c0,1.6,0.6,3,1.8,4c3,2.7,8.1,2.2,22.5,0.5c12.6-1.5,29.8-3.5,37.8-0.4
			c11,4.2,18.2,11.1,27.4,19.8c3.7,3.5,7.4,7.1,11.9,10.9c7.1,6.2,13.6,8.2,19.6,8.2c6.7,0,12.7-2.7,18-5c2-0.9,3.9-1.7,5.8-2.4
			c7.5-2.7,18.8-4.7,25.4-5.7C367,305.4,302.2,368.5,222.9,368.5z M369.8,217.7c-6.6,1-19.7,3.1-28.5,6.3c-2.2,0.8-4.3,1.7-6.3,2.6
			c-9.6,4.3-17.2,7.6-28.1-1.8c-4.3-3.7-8-7.2-11.6-10.6c-9.5-9-17.6-16.8-30.3-21.7c-10.1-3.9-27.9-1.8-42.1-0.2
			c-4.8,0.6-10.5,1.2-13.8,1.3c1.7-6.8,7.9-20.4,21.5-24.1c15.7-4.4,20.5-7.5,27.1-11.7c1.7-1.1,3.4-2.2,5.5-3.5
			c3.6-2.2,12.1-1.8,20.4-1.5c12.3,0.5,25.1,1,32.7-5.2c8.2-6.7,10.4-20,10.9-29.5c10.8,10.8,19.9,23.3,26.9,37.1
			c-7.8,12.4-17.3,25.4-28.3,38.7c-1.6,1.9-1.3,4.8,0.6,6.3c0.8,0.7,1.9,1,2.9,1c1.3,0,2.6-0.6,3.5-1.6
			c9.8-11.9,18.5-23.5,25.8-34.7C365.3,181.2,369.3,199,369.8,217.7z"/>
		<path class="st0" d="M293.6,264.7c2.6-17-22.9-38.2-32.3-41.7c-6.2-2.3-21.8-5.7-35.6-5.7c-11.1,0-19.4,2.2-24.6,6.5
			c-8.6,7.2-15.3,27-15.3,39.2c0,10.7,13.3,10.7,19,10.7c2,0,4,0,6.1-0.1c2.1,0,4.3-0.1,6.5-0.1c4.8,0,10.9,0.2,14.8,2
			c7.6,3.4,8.1,12.7,8,24.5c0,3.1-0.1,6.1,0.2,8.6c0.3,3.3-0.7,8.1-1.7,12.8c-1.9,9-4.3,20.3,5.1,22.6c0.7,0.2,1.5,0.3,2.3,0.3
			c0,0,0,0,0,0c7.3,0,15.5-8,24.9-17.2c4.5-4.5,9.3-9.1,13.4-12.2c10.5-7.9,9.8-22.7,9.1-35.8C293.3,273.7,293,268.6,293.6,264.7z
			 M279.1,307.7c-4.6,3.5-9.5,8.3-14.3,13c-6.3,6.2-14.9,14.6-18.6,14.6c0,0,0,0-0.1,0c-0.8-1.8,0.6-8.2,1.4-12
			c1.1-5.4,2.3-10.9,1.9-15.6c-0.2-2.1-0.2-4.8-0.2-7.7c0.1-11.3,0.2-26.7-13.3-32.8c-5.5-2.5-12.5-2.8-18.5-2.8
			c-2.3,0-4.5,0.1-6.7,0.1c-2.1,0-4,0.1-5.9,0.1c-8.2,0-9.7-1.1-10-1.4c0,0,0-0.1,0-0.3c0-10.8,6.2-27.4,12-32.3
			c3.5-2.9,10-4.4,18.8-4.4c13.2,0,27.6,3.4,32.4,5.2c7.9,3,28.2,21.5,26.6,31.9c-0.7,4.8-0.4,10.4-0.1,16.3
			C285.2,290.9,285.8,302.7,279.1,307.7z"/>
		<path class="st1" d="M397,84.6c-0.9-8.8-4.5-15.6-10.6-20.4c-25.3-20-64.5,4.3-66.2,5.3c-2.1,1.3-2.7,4.1-1.4,6.2
			c1.3,2.1,4.1,2.7,6.2,1.4c0.4-0.2,35.4-22,55.8-5.9c4.2,3.3,6.5,8,7.2,14.3c1.5,13.9-5.6,34.5-19.4,58.2
			c-8.8-15.8-20.2-29.9-33.6-41.7c-0.2-0.2-0.5-0.5-0.7-0.7C307,77.6,271.3,63.2,232.3,63.2c-86,0-155.9,69.9-155.9,155.9
			c0,23.6,5.3,45.9,14.6,65.9c-14.6,22-25.9,43.9-28.3,61c-3.3,23.9,5.8,34.9,14,39.9c6,3.6,13.4,5.2,21.4,5.2
			c16.9,0,36.4-7,50.5-17c2-1.4,2.5-4.2,1.1-6.3c-1.4-2-4.2-2.5-6.3-1.1c-18.1,12.7-46.9,20.7-62.1,11.4c-8.6-5.2-11.9-15.6-9.8-31
			c2-14.7,11.5-33.5,24.1-53c26.6,48.1,77.8,80.7,136.5,80.7c86,0,155.9-69.9,155.9-155.9c0-23.5-5.2-45.8-14.6-65.9
			C390.4,125.8,398.8,101.5,397,84.6z M232.3,366.1c-57,0-106.6-32.7-130.9-80.2c23.8-34.8,55.3-70,69.6-85.5v32.6
			c0,2.5,2,4.5,4.5,4.5c2.5,0,4.5-2,4.5-4.5V189c0,0,0,0,0,0c0-0.2,0-0.4-0.1-0.7c0-0.1,0-0.1,0-0.2c0-0.2-0.1-0.5-0.2-0.7
			c0,0,0-0.1,0-0.2c0-0.1-0.1-0.2-0.1-0.3c-0.1-0.2-0.2-0.3-0.3-0.5c0-0.1-0.1-0.1-0.2-0.2c-0.1-0.2-0.3-0.3-0.4-0.5c0,0,0,0,0,0
			c-0.1-0.1-0.2-0.1-0.2-0.2c-0.1-0.1-0.3-0.2-0.4-0.3c-0.1-0.1-0.2-0.1-0.4-0.2c-0.1-0.1-0.3-0.1-0.4-0.2c-0.1-0.1-0.3-0.1-0.4-0.1
			c-0.1,0-0.3-0.1-0.4-0.1c-0.2,0-0.4,0-0.6-0.1c-0.1,0-0.2,0-0.3,0h-46.3c-2.5,0-4.5,2-4.5,4.5c0,2.5,2,4.5,4.5,4.5H165
			c-13.7,14.7-43.9,48.2-68.1,82.8c-7.5-17.6-11.6-36.9-11.6-57.2c0-81,65.9-146.9,146.9-146.9c36.3,0,69.5,13.2,95.1,35.1
			c0.4,8-0.2,24.9-7.6,30.9c-5,4.1-16.5,3.6-26.6,3.2c-10-0.4-19.5-0.8-25.4,2.7c-2.2,1.3-4.1,2.5-5.8,3.6
			c-6.2,4-10.3,6.6-24.7,10.6c-21.7,6-28.5,29.7-28.5,35.9c0,1.6,0.6,3,1.8,4c3,2.7,8.1,2.2,22.5,0.5c12.6-1.5,29.8-3.5,37.8-0.4
			c11,4.2,18.2,11.1,27.4,19.8c3.7,3.5,7.4,7.1,11.9,10.9c7.1,6.2,13.6,8.2,19.6,8.2c6.7,0,12.7-2.7,18-5c2-0.9,3.9-1.7,5.8-2.4
			c7.5-2.7,18.8-4.7,25.4-5.7C376.3,303,311.5,366.1,232.3,366.1z M379.1,215.2c-6.6,1-19.7,3.1-28.5,6.3c-2.2,0.8-4.3,1.7-6.3,2.6
			c-9.6,4.3-17.2,7.6-28.1-1.8c-4.3-3.7-8-7.2-11.6-10.6c-9.5-9-17.6-16.8-30.3-21.7c-10.1-3.9-27.9-1.8-42.1-0.2
			c-4.8,0.6-10.5,1.2-13.8,1.3c1.7-6.8,7.9-20.4,21.5-24.1c15.7-4.4,20.5-7.5,27.1-11.7c1.7-1.1,3.4-2.2,5.5-3.5
			c3.6-2.2,12.1-1.8,20.4-1.5c12.3,0.5,25.1,1,32.7-5.2c8.2-6.7,10.4-20,10.9-29.5c10.8,10.8,19.9,23.3,26.9,37.1
			c-7.8,12.4-17.3,25.4-28.3,38.7c-1.6,1.9-1.3,4.8,0.6,6.3c0.8,0.7,1.9,1,2.9,1c1.3,0,2.6-0.6,3.5-1.6
			c9.8-11.9,18.5-23.5,25.8-34.7C374.6,178.7,378.6,196.6,379.1,215.2z"/>
		<path class="st1" d="M303,262.2c2.6-17-22.9-38.2-32.3-41.7c-6.2-2.3-21.8-5.7-35.6-5.7c-11.1,0-19.4,2.2-24.6,6.5
			c-8.6,7.2-15.3,27-15.3,39.2c0,10.7,13.3,10.7,19,10.7c2,0,4,0,6.1-0.1c2.1,0,4.3-0.1,6.5-0.1c4.8,0,10.9,0.2,14.8,2
			c7.6,3.4,8.1,12.7,8,24.5c0,3.1-0.1,6.1,0.2,8.6c0.3,3.3-0.7,8.1-1.7,12.8c-1.9,9-4.3,20.3,5.1,22.6c0.7,0.2,1.5,0.3,2.3,0.3
			c0,0,0,0,0,0c7.3,0,15.5-8,24.9-17.2c4.5-4.5,9.3-9.1,13.4-12.2c10.5-7.9,9.8-22.7,9.1-35.8C302.6,271.2,302.4,266.1,303,262.2z
			 M288.5,305.3c-4.6,3.5-9.5,8.3-14.3,13c-6.3,6.2-14.9,14.6-18.6,14.6c0,0,0,0-0.1,0c-0.8-1.8,0.6-8.2,1.4-12
			c1.1-5.4,2.3-10.9,1.9-15.6c-0.2-2.1-0.2-4.8-0.2-7.7c0.1-11.3,0.2-26.7-13.3-32.8c-5.5-2.5-12.5-2.8-18.5-2.8
			c-2.3,0-4.5,0.1-6.7,0.1c-2.1,0-4,0.1-5.9,0.1c-8.2,0-9.7-1.1-10-1.4c0,0,0-0.1,0-0.3c0-10.8,6.2-27.4,12-32.3
			c3.5-2.9,10-4.4,18.8-4.4c13.2,0,27.6,3.4,32.4,5.2c7.9,3,28.2,21.5,26.6,31.9c-0.7,4.8-0.4,10.4-0.1,16.3
			C294.5,288.5,295.2,300.2,288.5,305.3z"/>
	</g>
</g>
<g id="Designed_by_Vecteezy">
</g>
</svg>
